<?xml version="1.0" encoding="utf-8"?>
<!-- Generator: Adobe Illustrator 23.1.0, SVG Export Plug-In . SVG Version: 6.00 Build 0)  -->
<svg version="1.1"
	 id="svg11" xmlns:cc="http://creativecommons.org/ns#" xmlns:dc="http://purl.org/dc/elements/1.1/" xmlns:inkscape="http://www.inkscape.org/namespaces/inkscape" xmlns:rdf="http://www.w3.org/1999/02/22-rdf-syntax-ns#" xmlns:sodipodi="http://sodipodi.sourceforge.net/DTD/sodipodi-0.dtd" xmlns:svg="http://www.w3.org/2000/svg"
	 xmlns="http://www.w3.org/2000/svg" xmlns:xlink="http://www.w3.org/1999/xlink" x="0px" y="0px" viewBox="0 0 369.5 183.8"
	 style="enable-background:new 0 0 369.5 183.8;" xml:space="preserve">
<style type="text/css">
	.st0{fill-rule:evenodd;clip-rule:evenodd;fill:url(#path4_1_);}
	.st1{fill-rule:evenodd;clip-rule:evenodd;fill:url(#path2_1_);}
	.st2{fill-rule:evenodd;clip-rule:evenodd;fill:#000200;}
</style>
<linearGradient id="path4_1_" gradientUnits="userSpaceOnUse" x1="305.9636" y1="-365.0247" x2="305.9636" y2="-265.1219" gradientTransform="matrix(1 0 0 -1 -121.2636 -210.4129)">
	<stop  offset="0" style="stop-color:#000200"/>
	<stop  offset="1" style="stop-color:#000200;stop-opacity:0"/>
</linearGradient>
<path id="path4" inkscape:connector-curvature="0" class="st0" d="M143.7,52.4h27.9h26.2h27.9l-27,101.9l-14-52.6l-14,52.6
	L143.7,52.4z"/>
<linearGradient id="path2_1_" gradientUnits="userSpaceOnUse" x1="306.0136" y1="-311.5181" x2="306.0136" y2="-210.5411" gradientTransform="matrix(1 0 0 -1 -121.2636 -210.4129)">
	<stop  offset="0" style="stop-color:#000200"/>
	<stop  offset="1" style="stop-color:#000200;stop-opacity:0"/>
</linearGradient>
<path id="path2" inkscape:connector-curvature="0" class="st1" d="M157.7,0h54.1l-27,101.9L157.7,0z"/>
<path id="path6" inkscape:connector-curvature="0" class="st2" d="M7.9,183.8v-19.9l0,0H0l0,0v-1.4V161l0,0h19.1l0,0v1.4v1.5l0,0
	h-7.9l0,0v19.9l0,0H9.5L7.9,183.8L7.9,183.8z M22.3,183.8v-19l0,0h1.4H25l0,0v8.2l0,0h10.6l0,0v-8.2l0,0H37h1.4l0,0v19l0,0H37h-1.4
	l0,0v-8.4l0,0H25l0,0v8.4l0,0h-1.4H22.3z M42.6,183.8L42.6,183.8v-19l0,0h10.7l0,0v1.2v1.2l0,0h-8l0,0v5.8l0,0H53v1.2v1.2l0,0h-7.7
	l0,0v6l0,0h8.3l0,0v1.2v1.2l0,0L42.6,183.8z M75.5,184l-9.2-23.5l0,0h1.8h1.8l0,0l6.2,16.3l0,0l0,0l6.6-16.5H84h1.3l6.7,16.5l0,0
	l0,0l6.2-16.3l0,0h1.8h1.8l0,0L92.6,184h-0.5h-0.5L84,165.8l0,0l0,0L76.5,184H76H75.5z M103.9,183.8L103.9,183.8v-19l0,0h10.7l0,0
	v1.2v1.2l0,0h-8l0,0v5.8l0,0h7.7v1.2v1.2l0,0h-7.7l0,0v6l0,0h8.3l0,0v1.2v1.2l0,0L103.9,183.8z M117.8,183.8v-19l0,0h1.4h1.4l0,0v19
	l0,0h-1.4H117.8z M127.3,183.8L127.3,183.8H126h-1.3l0,0v-19l0,0h1.2h1.2l0,0l12.7,14.5l0,0l0,0v-14.5l0,0h1.3h1.3l0,0V184h-1.1
	h-1.1l-12.8-14.7l0,0l0,0L127.3,183.8z M155.5,169c-0.7-0.7-1.3-1.1-2-1.5c-0.7-0.3-1.4-0.5-2.2-0.5c-1,0-1.7,0.2-2.3,0.6
	c-0.6,0.4-0.9,1-0.9,1.7c0,0.6,0.3,1.2,0.8,1.7s1.4,1.1,2.7,1.9c1.7,1,2.9,1.9,3.6,2.8c0.7,0.9,1.1,1.9,1.1,3c0,1.6-0.5,2.9-1.5,3.9
	s-2.3,1.5-3.9,1.5c-1,0-2-0.1-2.8-0.4c-0.8-0.3-1.7-0.8-2.6-1.4v-3.4c0.8,0.9,1.7,1.6,2.5,2.1s1.7,0.7,2.6,0.7
	c0.9,0,1.6-0.2,2.2-0.7c0.6-0.5,0.8-1.1,0.8-1.8s-0.3-1.3-0.8-1.8s-1.4-1.2-2.7-1.9c-1.7-1-2.9-1.9-3.6-2.7
	c-0.7-0.8-1.1-1.8-1.1-2.8c0-1.6,0.5-2.8,1.6-3.8c1-0.9,2.5-1.4,4.2-1.4c0.8,0,1.4,0.1,2.1,0.3c0.6,0.2,1.3,0.5,2.1,1L155.5,169z
	 M165.4,183.8v-16.6l0,0h-6.6l0,0V166v-1.2l0,0h15.8l0,0v1.2v1.2l0,0H168l0,0v16.6l0,0h-1.4H165.4z M177,183.8L177,183.8v-19l0,0
	h10.7l0,0v1.2v1.2l0,0h-8l0,0v5.8l0,0h7.7v1.2v1.2l0,0h-7.7l0,0v6l0,0h8.3l0,0v1.2v1.2l0,0L177,183.8z M191.1,183.8v-19l0,0h1.4h1.4
	l0,0v19l0,0h-1.4H191.1z M201.1,183.8L201.1,183.8h-1.3h-1.3l0,0v-19l0,0h1.2h1.2l0,0l12.7,14.5l0,0l0,0v-14.5l0,0h1.3h1.3l0,0V184
	H215h-1l-12.8-14.7l0,0l0,0L201.1,183.8L201.1,183.8z M251.4,178.3v3.7c-2.5,1.4-5.3,2-8.6,2c-2.6,0-4.9-0.5-6.7-1.6
	s-3.3-2.5-4.3-4.4c-1.1-1.9-1.6-3.9-1.6-6c0-3.4,1.2-6.3,3.7-8.6c2.4-2.3,5.5-3.5,9-3.5c2.5,0,5.2,0.7,8.2,1.9v3.6
	c-2.8-1.6-5.4-2.4-8.1-2.4c-2.7,0-4.9,0.9-6.7,2.6c-1.8,1.7-2.7,3.8-2.7,6.4c0,2.6,0.9,4.7,2.6,6.4c1.8,1.7,4,2.5,6.7,2.5
	C245.9,180.9,248.6,180,251.4,178.3L251.4,178.3z M264,164.6c2.9,0,5.4,0.9,7.3,2.8c1.9,1.9,2.9,4.2,2.9,7s-1,5.1-3,6.9
	c-2,1.8-4.5,2.7-7.4,2.7s-5.2-0.9-7.1-2.7s-2.9-4.1-2.9-6.9c0-2.8,1-5.2,2.9-7C258.7,165.5,261.1,164.6,264,164.6z M264.1,167.2
	c-2.2,0-4,0.7-5.3,2c-1.4,1.4-2.1,3.1-2.1,5.2c0,2,0.7,3.7,2.1,5.1c1.4,1.4,3.2,2,5.3,2c2.1,0,3.9-0.7,5.3-2.1
	c1.4-1.4,2.1-3.1,2.1-5.2c0-2-0.7-3.7-2.1-5.1C267.9,167.8,266.2,167.2,264.1,167.2z M294,164.9h2.5v19h-2.7v-14.8l-5.8,7.3h-0.5
	l-5.9-7.3v14.8h-2.7v-19h2.6l6.3,7.8L294,164.9z M301.5,183.8v-19h6c1.8,0,3.3,0.5,4.3,1.5c1.1,1,1.6,2.3,1.6,3.9
	c0,1.1-0.3,2.1-0.8,2.9c-0.6,0.9-1.3,1.5-2.3,1.9s-2.3,0.6-4.1,0.6h-2v8.2L301.5,183.8L301.5,183.8z M307.1,167.2h-2.8v5.9h3
	c1.1,0,2-0.3,2.6-0.8s0.9-1.3,0.9-2.2C310.7,168.2,309.5,167.2,307.1,167.2L307.1,167.2z M319.7,164.7h1.9l8.5,19.1h-2.8l-2.5-5.6
	h-8.1l-2.4,5.6h-2.8L319.7,164.7z M323.6,175.8l-3.1-6.9l-2.8,6.9H323.6z M347.6,164.9h2.6v19h-2.3l-12.7-14.6v14.6h-2.6v-19h2.2
	l12.8,14.7V164.9z M366.2,164.9h3.3l-7,8.9v10h-2.8v-10l-7-8.9h3.3l5.1,6.5L366.2,164.9z"/>
</svg>
